<svg width="220" height="239" viewBox="0 0 220 239" fill="none" xmlns="http://www.w3.org/2000/svg">
<g style="mix-blend-mode:color">
<mask id="mask0_10_544" style="mask-type:alpha" maskUnits="userSpaceOnUse" x="0" y="0" width="220" height="239">
<g clip-path="url(#clip0_10_544)">
<path d="M159.759 13.1762C155.715 11.1337 150.246 8.57397 146.081 6.83364C137.909 4.07955 133.414 2.55677 124.514 1.23843C124.488 1.23846 124.705 1.26647 124.514 1.23843C124.314 1.21039 124.123 1.1729 123.923 1.14487C123.723 1.11683 123.523 1.07936 123.323 1.05133C122.732 0.967208 122.141 0.89253 121.541 0.817864C113.606 0.149443 112.589 0.0659256 105.95 0.216866C104.065 0.332791 101.545 0.477926 99.6592 0.659923C83.75 2.61732 71.8675 7.21195 64.7025 10.7333L62.6703 11.7556C59.7176 13.3361 59.6568 13.3645 58.1545 14.235C54.9415 16.1556 54.8808 16.1934 53.231 17.2812C44.3658 23.3347 38.8535 28.0902 31.3639 36.1427C29.0123 38.9211 25.9494 42.7104 23.737 45.6207C37.3522 29.7913 100.652 2.23483 146.518 9.09836C152.942 10.0615 155.098 10.9269 159.759 13.1762Z" fill="url(#paint0_linear_10_544)"/>
<path style="mix-blend-mode:overlay" opacity="0.48" d="M159.759 13.1762C155.715 11.1337 150.246 8.57397 146.081 6.83364C137.909 4.07955 133.414 2.55677 124.514 1.23843C124.488 1.23846 124.705 1.26647 124.514 1.23843C124.314 1.21039 124.123 1.1729 123.923 1.14487C123.723 1.11683 123.523 1.07936 123.323 1.05133C122.732 0.967208 122.141 0.89253 121.541 0.817864C113.606 0.149443 112.589 0.0659256 105.95 0.216866C104.065 0.332791 101.545 0.477926 99.6592 0.659923C83.75 2.61732 71.8675 7.21195 64.7025 10.7333L62.6703 11.7556C59.7176 13.3361 59.6568 13.3645 58.1545 14.235C54.9415 16.1556 54.8808 16.1934 53.231 17.2812C44.3658 23.3347 38.8535 28.0902 31.3639 36.1427C29.0123 38.9211 25.9494 42.7104 23.737 45.6207C37.3522 29.7913 100.652 2.23483 146.518 9.09836C152.942 10.0615 155.098 10.9269 159.759 13.1762Z" fill="url(#paint1_linear_10_544)"/>
<path d="M201.464 145.98C147.928 121.052 25.9403 187.881 28.2301 198.318C28.3 198.62 28.5524 198.959 28.6831 199.233L33.3649 204.502C41.5697 212.533 41.8917 212.844 47.1455 216.867C56.1389 223.131 56.6782 223.508 62.6349 226.643L66.8348 228.704C58.2414 222.684 100.568 199.178 135.466 190.606C148.949 187.293 173.319 182.643 183.141 191.69C194.205 206.39 155.762 228.975 150.441 227.51C150.215 227.444 149.946 227.246 149.728 227.133C149.744 226.199 149.753 225.887 151.645 224.214C154.604 220.774 150.511 220.478 148.616 220.509C136.807 220.724 110.492 233.881 114.694 237.471C115.216 237.914 116.363 238.082 118.11 237.957C120.004 237.756 122.541 237.507 124.426 237.24C127.832 236.682 130.43 236.2 132.22 235.795C134.965 235.13 137.027 234.595 138.405 234.191C140.745 233.47 142.494 232.908 143.652 232.503C145.754 231.739 147.32 231.145 148.351 230.722C150.326 229.895 151.799 229.257 152.772 228.809C154.717 227.888 156.171 227.178 157.132 226.679C160.084 225.099 160.145 225.07 161.648 224.2C164.861 222.279 164.921 222.241 166.571 221.154C173.708 216.283 179.699 211.602 187.51 203.322C191.927 198.229 195.415 194.203 200.333 186.494C202.7 182.45 205.691 176.943 207.798 172.73C209.955 167.527 215.691 153.69 201.438 145.971L201.464 145.98Z" fill="url(#paint2_linear_10_544)"/>
<path d="M201.463 145.98C172.769 132.617 124.424 145.617 86.078 162.16C81.4051 164.13 67.976 168.897 78.0213 161.454C88.0666 154.012 85.8266 148.701 72.5656 155.846C59.3046 162.991 19.9607 188.078 28.6734 199.232L33.3553 204.502C40.1853 211.185 41.5514 212.523 44.8481 215.095C61.817 198.657 154.431 152.38 197.551 172.462C201.064 174.363 203.213 176.682 204.459 179.135C205.664 176.905 206.835 174.676 207.814 172.73C209.972 167.526 215.707 153.69 201.454 145.97L201.463 145.98Z" fill="url(#paint3_linear_10_544)"/>
<path style="mix-blend-mode:overlay" opacity="0.48" d="M207.034 174.28C207.303 173.751 207.572 173.231 207.823 172.731C209.981 167.527 215.716 153.691 201.464 145.971C200.594 145.566 199.707 145.19 198.803 144.832C198.499 144.71 198.186 144.607 197.881 144.494C197.273 144.268 196.664 144.043 196.047 143.836C195.673 143.714 195.291 143.601 194.917 143.488C194.343 143.31 193.769 143.131 193.187 142.971C192.778 142.859 192.352 142.756 191.944 142.652C191.379 142.511 190.814 142.371 190.24 142.239C189.805 142.146 189.362 142.052 188.919 141.967C188.345 141.855 187.78 141.743 187.198 141.64C186.737 141.555 186.276 141.49 185.816 141.415C185.233 141.321 184.66 141.237 184.069 141.163C183.599 141.097 183.121 141.041 182.643 140.995C182.052 140.929 181.461 140.864 180.862 140.818C180.375 140.771 179.888 140.734 179.401 140.697C178.793 140.651 178.185 140.614 177.568 140.587C177.072 140.559 176.586 140.541 176.09 140.523C175.465 140.495 174.83 140.487 174.204 140.469C173.709 140.46 173.214 140.451 172.718 140.452C172.067 140.453 171.415 140.454 170.763 140.464C170.268 140.465 169.781 140.475 169.286 140.485C168.608 140.505 167.922 140.534 167.235 140.563C166.757 140.583 166.279 140.602 165.793 140.631C165.063 140.67 164.333 140.728 163.594 140.776C163.142 140.805 162.699 140.834 162.247 140.872C161.413 140.94 160.562 141.026 159.719 141.112C159.363 141.15 159.015 141.179 158.659 141.217C156.243 141.476 153.802 141.809 151.334 142.19C150.978 142.247 150.622 142.305 150.265 142.362C149.388 142.505 148.51 142.647 147.633 142.8C147.181 142.876 146.729 142.971 146.277 143.047C145.487 143.19 144.696 143.342 143.897 143.494C143.41 143.589 142.924 143.694 142.437 143.789C141.673 143.95 140.908 144.102 140.135 144.273C139.631 144.387 139.119 144.501 138.606 144.615C137.859 144.786 137.103 144.957 136.356 145.128C135.843 145.252 135.322 145.375 134.81 145.498C134.062 145.679 133.315 145.869 132.559 146.049C132.038 146.182 131.517 146.315 130.996 146.448C130.249 146.647 129.493 146.846 128.746 147.045C128.233 147.188 127.721 147.321 127.208 147.463C126.444 147.672 125.688 147.89 124.923 148.108C124.42 148.25 123.916 148.402 123.412 148.544C122.639 148.772 121.857 149 121.084 149.237C120.597 149.379 120.119 149.531 119.633 149.673C118.825 149.919 118.026 150.175 117.218 150.431C116.766 150.574 116.306 150.716 115.854 150.868C115.012 151.142 114.169 151.417 113.326 151.702C112.918 151.834 112.51 151.967 112.102 152.109C111.172 152.422 110.251 152.744 109.331 153.067C109.009 153.18 108.688 153.285 108.367 153.398C107.229 153.796 106.091 154.204 104.953 154.621C104.857 154.659 104.753 154.687 104.657 154.725C102.138 155.644 99.6369 156.592 97.1614 157.567C97.0224 157.624 96.8834 157.681 96.7444 157.728C95.6674 158.155 94.599 158.581 93.5394 159.007C93.2527 159.121 92.9748 159.244 92.6882 159.357C91.7762 159.727 90.8642 160.106 89.9522 160.485C89.6134 160.627 89.2834 160.769 88.9446 160.911C88.1021 161.271 87.2596 161.621 86.4171 161.981C86.3042 162.028 86.1913 162.076 86.0784 162.123C81.4055 164.093 67.9765 168.86 78.0217 161.417C88.067 153.974 85.827 148.663 72.566 155.808C59.305 162.954 19.9611 188.041 28.6738 199.195L33.3557 204.465C33.8081 204.908 34.2345 205.332 34.6434 205.728C34.7826 205.86 34.9131 205.992 35.0436 206.114C35.3308 206.397 35.6092 206.67 35.8789 206.925C36.0355 207.076 36.1834 207.217 36.3226 207.358C36.5314 207.556 36.7316 207.754 36.923 207.943C37.0796 208.094 37.2362 208.244 37.3754 208.386C37.5755 208.584 37.7669 208.763 37.9497 208.942C38.0628 209.055 38.1846 209.168 38.2977 209.281C38.5152 209.488 38.724 209.686 38.9241 209.884C39.0633 210.016 39.1938 210.139 39.3244 210.271C39.4984 210.44 39.6811 210.61 39.8464 210.761C39.9508 210.855 40.0465 210.949 40.1422 211.044C40.2727 211.166 40.4032 211.289 40.5337 211.411C40.6294 211.505 40.7338 211.59 40.8295 211.684C40.9426 211.788 41.0644 211.892 41.1775 211.995C41.2732 212.08 41.3689 212.175 41.4646 212.259C41.5777 212.363 41.6908 212.457 41.8039 212.561C41.8909 212.636 41.9779 212.712 42.0562 212.787C42.1954 212.91 42.3433 213.032 42.4825 213.155C42.5956 213.249 42.7087 213.343 42.8131 213.437C42.9348 213.541 43.0653 213.645 43.1871 213.748C43.2741 213.824 43.3698 213.899 43.4655 213.974C43.5699 214.059 43.6743 214.144 43.7873 214.238C43.8917 214.323 43.9961 214.408 44.1005 214.493C44.2049 214.577 44.3093 214.662 44.4224 214.747C44.5354 214.832 44.6485 214.926 44.7616 215.011C44.7877 215.03 44.8138 215.049 44.8399 215.077C45.5097 215.595 46.2491 216.17 47.1363 216.839C56.1297 223.103 56.669 223.48 62.6256 226.614L66.8255 228.676C58.2322 222.656 100.559 199.15 135.457 190.578C148.94 187.265 173.31 182.615 183.132 191.662C194.196 206.362 155.752 228.947 150.432 227.482C150.206 227.416 149.936 227.218 149.719 227.105C149.735 226.171 149.744 225.859 151.636 224.186C154.595 220.746 150.502 220.45 148.607 220.481C136.797 220.696 110.483 233.853 114.684 237.443C115.206 237.886 116.354 238.054 118.1 237.929C119.994 237.728 122.532 237.479 124.417 237.212C127.823 236.654 130.421 236.172 132.21 235.767C134.956 235.102 137.017 234.567 138.396 234.163C140.735 233.442 142.484 232.879 143.643 232.475C145.745 231.711 147.311 231.117 148.342 230.694C150.316 229.867 151.79 229.229 152.763 228.781C154.708 227.86 156.161 227.15 157.122 226.651C160.075 225.071 160.136 225.042 161.638 224.172C164.851 222.251 164.912 222.213 166.562 221.126C173.699 216.254 179.689 211.574 187.5 203.294C191.917 198.2 195.406 194.175 200.323 186.465C202.136 183.367 204.321 179.409 206.185 175.829C206.237 175.725 206.289 175.621 206.349 175.517C206.575 175.092 206.792 174.667 207.008 174.251L207.034 174.28Z" fill="url(#paint4_linear_10_544)"/>
<path d="M132.227 235.813C134.973 235.149 137.034 234.614 138.413 234.209C140.752 233.489 142.501 232.926 143.659 232.522C145.762 231.758 147.328 231.164 148.359 230.741C150.333 229.914 151.807 229.276 152.78 228.828C154.725 227.906 156.178 227.196 157.139 226.698C160.092 225.118 160.153 225.089 161.655 224.219C164.868 222.298 164.929 222.26 166.579 221.172C170.859 218.25 174.723 215.394 178.82 211.792C178.49 211.594 178.142 211.415 177.785 211.236C168.577 220.698 153.613 228.393 150.44 227.519C150.214 227.453 149.945 227.256 149.727 227.143C149.743 226.208 149.752 225.897 151.644 224.223C154.603 220.783 150.51 220.487 148.615 220.518C136.806 220.733 110.491 233.89 114.693 237.48C115.215 237.923 116.362 238.092 118.108 237.966C120.003 237.766 122.54 237.517 124.425 237.25C127.831 236.691 130.429 236.209 132.219 235.804L132.227 235.813Z" fill="url(#paint5_linear_10_544)"/>
<path style="mix-blend-mode:overlay" opacity="0.48" d="M132.227 235.813C134.973 235.149 137.034 234.614 138.413 234.209C140.752 233.489 142.501 232.926 143.659 232.522C145.762 231.758 147.328 231.164 148.359 230.741C150.333 229.914 151.807 229.276 152.78 228.828C154.725 227.906 156.178 227.196 157.139 226.698C160.092 225.118 160.153 225.089 161.655 224.219C164.868 222.298 164.929 222.26 166.579 221.172C170.859 218.25 174.723 215.394 178.82 211.792C178.49 211.594 178.142 211.415 177.785 211.236C168.577 220.698 153.613 228.393 150.44 227.519C150.214 227.453 149.945 227.256 149.727 227.143C149.743 226.208 149.752 225.897 151.644 224.223C154.603 220.783 150.51 220.487 148.615 220.518C136.806 220.733 110.491 233.89 114.693 237.48C115.215 237.923 116.362 238.092 118.108 237.966C120.003 237.766 122.54 237.517 124.425 237.25C127.831 236.691 130.429 236.209 132.219 235.804L132.227 235.813Z" fill="url(#paint6_linear_10_544)"/>
<path d="M216.719 92.3032C213.724 80.4993 213.479 79.5369 210.55 71.9993C208.301 66.9149 205.078 60.2461 202.465 55.3698C199.775 51.5697 196.371 46.7984 184.487 43.0019C116.916 25.3896 5.45707 82.0387 2.32041 96.4092C1.80347 100.006 1.07945 104.793 0.727658 108.418C0.134263 120.415 0.117457 120.878 0.551981 127.881C1.80977 140.027 1.8625 140.499 3.36571 147.34L3.46182 147.755C3.96904 129.349 145.805 62.7743 202.473 90.3222C207.091 92.5622 217.359 96.7858 219.042 108.384C218.453 103.269 217.568 97.0592 216.719 92.3032Z" fill="url(#paint7_linear_10_544)"/>
<path d="M210.553 71.9933C208.304 66.9088 205.081 60.2401 202.467 55.3638C199.777 51.5637 196.374 46.7924 184.49 42.9958C151.873 34.4901 109.051 43.2909 73.0981 56.2824L73.1068 56.2824C57.2014 61.3357 74.9318 49.3044 87.6234 45.5487C94.0779 43.6424 99.5809 38.3866 87.3397 41.009C67.1405 45.3416 2.6424 80.5548 2.32318 96.4032C1.80625 100 1.08222 104.787 0.730433 108.412C0.382879 115.444 0.23027 118.512 0.259767 121.268C22.0622 99.3675 129.556 47.821 197.18 66.0561C203.839 68.2555 208.074 70.7414 211.032 73.2291C210.884 72.8423 210.727 72.4366 210.561 72.0121L210.553 71.9933Z" fill="url(#paint8_linear_10_544)"/>
<path style="mix-blend-mode:overlay" opacity="0.48" d="M216.719 92.3005C213.723 80.4966 213.479 79.5342 210.55 71.9966C208.301 66.9122 205.078 60.2434 202.465 55.3672C199.775 51.5671 196.371 46.7958 184.487 42.9992C183.452 42.7269 182.4 42.4735 181.34 42.2391C180.983 42.1641 180.618 42.0891 180.262 42.0141C179.558 41.864 178.845 41.714 178.132 41.5829C177.698 41.4985 177.254 41.4331 176.82 41.3582C176.177 41.2458 175.525 41.1335 174.873 41.0306C174.403 40.9557 173.925 40.8998 173.447 40.8249C172.822 40.7408 172.196 40.6473 171.561 40.5633C171.066 40.4979 170.562 40.4514 170.058 40.3955C169.441 40.3303 168.823 40.2557 168.206 40.1999C167.685 40.1534 167.163 40.1164 166.642 40.07C166.034 40.0236 165.417 39.9679 164.8 39.931C164.261 39.894 163.722 39.8664 163.192 39.8388C162.583 39.8019 161.975 39.7745 161.358 39.747C160.811 39.7289 160.254 39.7108 159.707 39.6927C159.098 39.6747 158.49 39.6567 157.873 39.6481C157.308 39.6489 156.752 39.6403 156.187 39.6411C155.579 39.6419 154.971 39.6428 154.362 39.6436C153.789 39.6444 153.215 39.6641 152.633 39.6744C152.025 39.6847 151.416 39.695 150.808 39.7147C150.226 39.7344 149.635 39.7541 149.053 39.7833C148.445 39.8124 147.845 39.8322 147.237 39.8708C146.637 39.8999 146.046 39.9385 145.447 39.9771C144.847 40.0157 144.239 40.0543 143.631 40.1024C143.022 40.1504 142.414 40.1985 141.814 40.2465C141.215 40.2946 140.615 40.352 140.016 40.4095C139.399 40.467 138.782 40.5245 138.165 40.5915C137.574 40.6489 136.975 40.7159 136.375 40.7828C135.749 40.8497 135.124 40.9261 134.498 41.0025C133.907 41.0789 133.317 41.1458 132.726 41.2221C132.091 41.3079 131.449 41.3938 130.806 41.4797C130.223 41.556 129.641 41.6418 129.068 41.7275C128.416 41.8228 127.773 41.9181 127.122 42.0229C126.548 42.1086 125.983 42.2038 125.41 42.299C124.75 42.4038 124.089 42.518 123.42 42.6322C122.864 42.7274 122.3 42.832 121.744 42.9272C121.066 43.0508 120.397 43.1745 119.719 43.2981C119.172 43.4027 118.633 43.5073 118.086 43.6119C117.391 43.745 116.704 43.8876 116.009 44.0207C115.488 44.1253 114.967 44.2393 114.446 44.3533C113.733 44.5053 113.021 44.6573 112.308 44.8094C111.813 44.9139 111.318 45.0278 110.823 45.1418C110.084 45.3033 109.355 45.4742 108.625 45.6452C108.156 45.7591 107.687 45.873 107.217 45.987C106.462 46.1674 105.697 46.3478 104.941 46.5376C104.516 46.6421 104.081 46.7559 103.655 46.8604C102.856 47.0597 102.066 47.259 101.266 47.4678C100.902 47.5627 100.537 47.6671 100.172 47.762C99.3205 47.9897 98.4605 48.2174 97.6091 48.4546C97.3398 48.5305 97.0792 48.6064 96.8099 48.6823C95.863 48.9479 94.9074 49.2135 93.9692 49.4886C93.8824 49.517 93.8042 49.536 93.7173 49.5645C86.6895 51.6037 79.7836 53.8694 73.1126 56.2763L73.1213 56.2763C57.2159 61.3296 74.9462 49.2983 87.6379 45.5426C94.0923 43.6363 99.5953 38.3805 87.3542 41.0029C67.1376 45.345 2.6395 80.5581 2.32029 96.4065C1.80335 100.004 1.07933 104.79 0.727539 108.415C0.710664 108.821 0.685086 109.217 0.668175 109.595C0.668245 109.652 0.668304 109.699 0.668375 109.756C0.609034 110.954 0.558219 112.021 0.515965 112.984L0.515989 113.003C0.465068 113.984 0.431411 114.872 0.397636 115.665C0.389262 115.92 0.380877 116.165 0.36379 116.401C0.363826 116.429 0.363849 116.448 0.363884 116.476C0.355476 116.703 0.347056 116.92 0.338624 117.128C0.338647 117.147 0.338671 117.166 0.338682 117.175C0.338964 117.402 0.321853 117.619 0.313421 117.826C0.288431 118.695 0.272001 119.459 0.264203 120.177C0.264214 120.186 0.264226 120.196 0.264238 120.205C0.264449 120.375 0.26466 120.545 0.264871 120.715L0.247491 120.715C0.250178 122.876 0.348035 124.698 0.551827 127.85C1.80962 139.996 1.86235 140.468 3.36556 147.309L3.46167 147.724C3.96889 129.318 145.805 62.7433 202.473 90.2912C207.09 92.5312 217.359 96.7548 219.042 108.353C218.453 103.238 217.568 97.0282 216.71 92.2722L216.719 92.3005Z" fill="url(#paint9_linear_10_544)"/>
<path d="M23.7381 45.6109C25.9592 42.7101 29.0047 38.9019 31.365 36.1329C38.1343 28.8837 43.3683 23.987 53.232 17.2715C55.4144 15.884 57.0556 14.8686 58.1556 14.2252C60.1587 13.096 61.6639 12.2695 62.6714 11.7458L64.7036 10.7235C52.9098 16.7339 54.7629 18.3737 55.0064 18.5338C56.3197 19.4097 62.6439 17.5886 68.1579 14.2205C76.3997 10.0652 82.5016 11.1799 80.4834 16.4685C74.6279 31.8056 26.2788 55.1501 22.8899 48.3966C22.463 47.5383 23.2349 46.2818 23.7294 45.6109" fill="url(#paint10_linear_10_544)"/>
<path d="M37.5637 31.3199C37.3197 30.8294 37.4754 30.2063 37.7354 29.6301C35.6348 31.6436 33.5779 33.7608 31.3649 36.1331C29.0046 38.902 25.9591 42.7102 23.738 45.6111C23.2348 46.2819 22.4629 47.5384 22.8985 48.3967C26.2961 55.1502 74.6452 31.8057 80.492 16.4686C80.8125 15.6281 80.9245 14.8917 80.8629 14.2594C64.427 25.9868 39.9419 36.0455 37.5636 31.3105L37.5637 31.3199Z" fill="url(#paint11_linear_10_544)"/>
<path d="M159.759 13.1771C207.362 39.3975 90.173 128.77 24.5507 147.438C16.1243 149.838 4.99505 152.157 3.4601 147.751C1.8205 143.043 -2.40563 119.886 2.31869 96.405C2.59723 110.752 82.6954 76.6115 117.049 36.1267C129.883 20.9969 135.605 2.56408 109.471 0.392197C129.926 -0.420062 146.237 5.73001 159.759 13.1677L159.759 13.1771Z" fill="url(#paint12_linear_10_544)"/>
<path d="M202.464 55.3643C203.352 57.1659 204.459 59.6468 204.913 61.6283C216.282 111.978 53.7073 217.518 28.6829 199.232C38.0148 212.084 59.6194 226.741 66.8433 228.703C104.945 239.042 222.023 165.451 219.252 110.181C218.067 86.5758 208.881 65.5021 202.472 55.3643L202.464 55.3643Z" fill="url(#paint13_linear_10_544)"/>
<path d="M200.35 186.493C196.663 191.992 193.48 196.744 187.526 203.322C182.041 209.059 176.686 214.352 166.588 221.153C164.405 222.541 162.764 223.556 161.664 224.199C159.661 225.329 158.156 226.155 157.149 226.679C155.215 227.651 153.761 228.361 152.789 228.809C150.832 229.686 149.358 230.324 148.368 230.722C145.319 231.925 145.258 231.944 143.669 232.503C140.281 233.65 140.211 233.669 138.422 234.19C134.53 235.262 134.374 235.31 132.236 235.794C127.51 236.773 127.232 236.83 124.443 237.24C122.549 237.469 120.021 237.784 118.126 237.957C136.451 235.514 191.492 205.685 207.823 172.73C205.708 176.933 202.839 182.525 200.358 186.493" fill="url(#paint14_linear_10_544)"/>
<path d="M170.52 26.6868C170.144 24.6579 169.42 22.7523 168.341 20.9698C168.323 20.951 168.314 20.9227 168.297 20.8944C166.494 17.9425 163.693 15.3413 159.754 13.1759C151.545 8.65683 142.293 4.61113 131.714 2.3135C134.688 3.35703 137.496 4.57069 140.105 6.01117C180.82 28.4373 87.1092 108.272 18.0411 123.292C10.2742 124.983 4.4166 124.661 0.218067 123.704C0.606634 135.682 2.48655 144.957 3.45462 147.741C4.98956 152.146 16.1188 149.828 24.5453 147.428C50.3807 140.076 84.2061 121.773 112.823 100.675C123.042 93.1377 136.512 87.0778 117.944 103.348C106.243 113.606 117.958 113.967 139.139 95.4558C174.955 64.1625 173.428 37.8017 170.511 26.6773L170.52 26.6868Z" fill="url(#paint15_linear_10_544)"/>
<path style="mix-blend-mode:overlay" opacity="0.68" d="M170.52 26.6868C170.144 24.6579 169.42 22.7523 168.341 20.9698C168.323 20.951 168.314 20.9227 168.297 20.8944C166.494 17.9425 163.693 15.3413 159.754 13.1759C151.545 8.65683 142.293 4.61113 131.714 2.3135C134.688 3.35703 137.496 4.57069 140.105 6.01117C180.82 28.4373 87.1092 108.272 18.0411 123.292C10.2742 124.983 4.4166 124.661 0.218067 123.704C0.606634 135.682 2.48655 144.957 3.45462 147.741C4.98956 152.146 16.1188 149.828 24.5453 147.428C50.3807 140.076 84.2061 121.773 112.823 100.675C123.042 93.1377 136.512 87.0778 117.944 103.348C106.243 113.606 117.958 113.967 139.139 95.4558C174.955 64.1625 173.428 37.8017 170.511 26.6773L170.52 26.6868Z" fill="url(#paint16_linear_10_544)"/>
<path d="M93.1185 121.176C89.9857 124.606 91.1264 126.511 95.4093 125.42C100.743 124.053 106.066 120.129 108.356 117.265C111.376 113.495 108.671 112.224 104.884 113.542C102.53 114.366 96.1733 117.83 93.1185 121.166L93.1185 121.176Z" fill="url(#paint17_linear_10_544)"/>
<path d="M213.339 79.305C213.436 80.4847 213.42 81.8345 213.482 83.0237C216.494 142.91 92.9752 222.163 46.5453 216.546C54.5917 222.963 62.7923 227.614 66.8433 228.703C70.929 229.811 75.9347 229.955 81.5999 229.258C84.7975 228.942 86.5808 230.431 82.7233 231.154C78.3705 231.972 73.7997 232.12 67.2813 231.525C63.8917 231.209 63.1211 240.469 86.6127 235.15C170.675 216.097 202.488 159.013 213.911 134.21C215.188 133.859 212.474 138.677 211.783 141.991C210.729 147.033 216.614 148.214 219.325 126.963C221.442 110.357 216.932 89.9282 213.347 79.305L213.339 79.305Z" fill="url(#paint18_linear_10_544)"/>
<path style="mix-blend-mode:overlay" opacity="0.68" d="M213.339 79.305C213.436 80.4847 213.42 81.8345 213.482 83.0237C216.494 142.91 92.9752 222.163 46.5453 216.546C54.5917 222.963 62.7923 227.614 66.8433 228.703C70.929 229.811 75.9347 229.955 81.5999 229.258C84.7975 228.942 86.5808 230.431 82.7233 231.154C78.3705 231.972 73.7997 232.12 67.2813 231.525C63.8917 231.209 63.1211 240.469 86.6127 235.15C170.675 216.097 202.488 159.013 213.911 134.21C215.188 133.859 212.474 138.677 211.783 141.991C210.729 147.033 216.614 148.214 219.325 126.963C221.442 110.357 216.932 89.9282 213.347 79.305L213.339 79.305Z" fill="url(#paint19_linear_10_544)"/>
<path d="M80.6976 13.9857C65.946 24.5026 44.9359 33.603 39.0593 32.0067C38.4421 31.8376 38.0333 31.555 37.833 31.1589C37.6761 30.8382 37.7364 30.3756 38.0138 29.79L38.1524 29.4877L37.9872 29.3936C37.7355 29.6393 37.4751 29.8757 37.2234 30.1215C37.085 30.6408 37.1029 31.1033 37.2859 31.4711C37.5734 32.0371 38.1126 32.4327 38.9037 32.6487C39.3818 32.7802 39.9468 32.836 40.5985 32.8351C48.1937 32.8244 67.1973 24.3592 80.8722 14.6462C80.8719 14.3819 80.8455 14.1365 80.793 13.9006L80.6802 13.9763L80.6976 13.9857Z" fill="url(#paint20_linear_10_544)"/>
<path d="M131.628 2.63514C134.662 3.69747 137.462 4.93002 139.966 6.31401C147.297 10.353 150.511 16.4271 149.513 24.3667C147.611 39.5 130.283 60.7242 103.161 81.1411C75.899 101.662 44.0603 117.3 17.9795 122.972C11.3681 124.406 5.40683 124.547 0.278186 123.384L0.208641 123.365C0.208923 123.591 0.226597 123.827 0.235568 124.054C2.56518 124.579 5.05958 124.84 7.70139 124.836C10.9515 124.832 14.4271 124.43 18.102 123.632C44.261 117.942 76.1865 102.266 103.509 81.6881C130.77 61.1672 148.194 39.7634 150.121 24.4508C151.163 16.1997 147.835 9.88972 140.243 5.70953C138.382 4.68331 136.356 3.74227 134.2 2.88637C132.401 2.43584 130.549 2.04201 128.672 1.70485L131.628 2.6257L131.628 2.63514Z" fill="url(#paint21_linear_10_544)"/>
<path d="M213.786 83.0044C213.742 82.1172 213.68 81.1734 213.592 80.088C213.304 79.2012 213.016 78.3238 212.719 77.4652L212.922 79.4943C213.036 80.8628 213.116 81.9859 213.161 83.043C213.811 96.0018 208.676 117.511 180.521 146.415C161.87 165.564 136.266 184.29 110.282 197.805C84.3843 211.273 61.1639 217.979 46.5709 216.216L46.2667 216.178L46.2495 216.32C46.5191 216.527 46.7801 216.735 47.0497 216.932C48.5099 217.091 50.0394 217.164 51.6384 217.162C84.1743 217.116 143.671 185.157 180.939 146.896C196.579 130.846 214.963 106.732 213.769 83.0044L213.786 83.0044Z" fill="url(#paint22_linear_10_544)"/>
</g>
</mask>
<g mask="url(#mask0_10_544)">
<rect width="258.967" height="257.683" transform="matrix(0.999999 -0.00140632 0.00124602 0.999999 -20.0005 -9.1001)" fill="#0500FF"/>
</g>
</g>
<defs>
<linearGradient id="paint0_linear_10_544" x1="27.3251" y1="44.8039" x2="141.657" y2="7.09644" gradientUnits="userSpaceOnUse">
<stop stop-color="#076BFF"/>
<stop offset="1" stop-color="#DD65F5"/>
</linearGradient>
<linearGradient id="paint1_linear_10_544" x1="113.342" y1="11.1745" x2="36.0793" y2="33.6204" gradientUnits="userSpaceOnUse">
<stop stop-color="white" stop-opacity="0"/>
<stop offset="1" stop-color="#7800B1"/>
</linearGradient>
<linearGradient id="paint2_linear_10_544" x1="-6.57936" y1="235.981" x2="238.745" y2="168.471" gradientUnits="userSpaceOnUse">
<stop stop-color="#4037FF"/>
<stop offset="1" stop-color="#FF87FF"/>
</linearGradient>
<linearGradient id="paint3_linear_10_544" x1="186.387" y1="146.86" x2="-18.0918" y2="221.193" gradientUnits="userSpaceOnUse">
<stop stop-color="#FF89FF"/>
<stop offset="1" stop-color="#6091FF"/>
</linearGradient>
<linearGradient id="paint4_linear_10_544" x1="309.513" y1="100.889" x2="108.864" y2="179.869" gradientUnits="userSpaceOnUse">
<stop stop-color="white" stop-opacity="0"/>
<stop offset="0.15" stop-color="#E7D3F1" stop-opacity="0.17"/>
<stop offset="0.56" stop-color="#AC62CF" stop-opacity="0.61"/>
<stop offset="0.85" stop-color="#861BB9" stop-opacity="0.89"/>
<stop offset="1" stop-color="#7800B1"/>
</linearGradient>
<linearGradient id="paint5_linear_10_544" x1="91.2177" y1="256.165" x2="156.002" y2="224.461" gradientUnits="userSpaceOnUse">
<stop stop-color="#076BFF"/>
<stop offset="1" stop-color="#DD65F5"/>
</linearGradient>
<linearGradient id="paint6_linear_10_544" x1="165.234" y1="215.671" x2="95.5095" y2="244.331" gradientUnits="userSpaceOnUse">
<stop stop-color="white" stop-opacity="0"/>
<stop offset="1" stop-color="#7800B1"/>
</linearGradient>
<linearGradient id="paint7_linear_10_544" x1="-16.2726" y1="148.491" x2="226.648" y2="64.369" gradientUnits="userSpaceOnUse">
<stop stop-color="#4037FF"/>
<stop offset="1" stop-color="#FF87FF"/>
</linearGradient>
<linearGradient id="paint8_linear_10_544" x1="172.392" y1="48.9594" x2="-15.2551" y2="103.723" gradientUnits="userSpaceOnUse">
<stop stop-color="#FF89FF"/>
<stop offset="0.06" stop-color="#F389FF"/>
<stop offset="0.38" stop-color="#B48CFF"/>
<stop offset="0.66" stop-color="#868FFF"/>
<stop offset="0.87" stop-color="#6A90FF"/>
<stop offset="1" stop-color="#6091FF"/>
</linearGradient>
<linearGradient id="paint9_linear_10_544" x1="257.692" y1="35.477" x2="1.80114" y2="116.342" gradientUnits="userSpaceOnUse">
<stop stop-color="white" stop-opacity="0"/>
<stop offset="0.15" stop-color="#E7D3F1" stop-opacity="0.17"/>
<stop offset="0.56" stop-color="#AC62CF" stop-opacity="0.61"/>
<stop offset="0.85" stop-color="#861BB9" stop-opacity="0.89"/>
<stop offset="1" stop-color="#7800B1"/>
</linearGradient>
<linearGradient id="paint10_linear_10_544" x1="20.2762" y1="50.0144" x2="82.0193" y2="15.9874" gradientUnits="userSpaceOnUse">
<stop stop-color="#F5CAE6"/>
<stop offset="1" stop-color="#F5DBF3"/>
</linearGradient>
<linearGradient id="paint11_linear_10_544" x1="17.6031" y1="73.861" x2="59.772" y2="30.0383" gradientUnits="userSpaceOnUse">
<stop stop-color="#6DBDFB"/>
<stop offset="1" stop-color="#F5CAE6"/>
</linearGradient>
<linearGradient id="paint12_linear_10_544" x1="22.4679" y1="114.716" x2="139.827" y2="42.7302" gradientUnits="userSpaceOnUse">
<stop stop-color="#65CDFD"/>
<stop offset="1" stop-color="#FFD9F5"/>
</linearGradient>
<linearGradient id="paint13_linear_10_544" x1="32.651" y1="224.504" x2="224.206" y2="114.897" gradientUnits="userSpaceOnUse">
<stop stop-color="#65CDFD"/>
<stop offset="1" stop-color="#FFD9F5"/>
</linearGradient>
<linearGradient id="paint14_linear_10_544" x1="149.602" y1="223.924" x2="218.438" y2="173.641" gradientUnits="userSpaceOnUse">
<stop stop-color="#6DBDFB"/>
<stop offset="1" stop-color="#F5CAE6"/>
</linearGradient>
<linearGradient id="paint15_linear_10_544" x1="11.7099" y1="161.406" x2="160.888" y2="46.4334" gradientUnits="userSpaceOnUse">
<stop stop-color="#13D2FD"/>
<stop offset="1" stop-color="#F5CAE6"/>
</linearGradient>
<linearGradient id="paint16_linear_10_544" x1="214.098" y1="-10.7906" x2="12.1563" y2="119.505" gradientUnits="userSpaceOnUse">
<stop stop-color="white" stop-opacity="0"/>
<stop offset="0.15" stop-color="#E7D3F1" stop-opacity="0.17"/>
<stop offset="0.56" stop-color="#AC62CF" stop-opacity="0.61"/>
<stop offset="0.85" stop-color="#861BB9" stop-opacity="0.89"/>
<stop offset="1" stop-color="#7800B1"/>
</linearGradient>
<linearGradient id="paint17_linear_10_544" x1="57.0006" y1="147.854" x2="126.389" y2="109.608" gradientUnits="userSpaceOnUse">
<stop stop-color="#13D2FD"/>
<stop offset="1" stop-color="#F5CAE6"/>
</linearGradient>
<linearGradient id="paint18_linear_10_544" x1="80.6818" y1="238.764" x2="202.263" y2="118.261" gradientUnits="userSpaceOnUse">
<stop stop-color="#65CDFD"/>
<stop offset="1" stop-color="#F5CAE6"/>
</linearGradient>
<linearGradient id="paint19_linear_10_544" x1="279.616" y1="77.2294" x2="56.5726" y2="206.463" gradientUnits="userSpaceOnUse">
<stop stop-color="white" stop-opacity="0"/>
<stop offset="0.15" stop-color="#E7D3F1" stop-opacity="0.17"/>
<stop offset="0.56" stop-color="#AC62CF" stop-opacity="0.61"/>
<stop offset="0.85" stop-color="#861BB9" stop-opacity="0.89"/>
<stop offset="1" stop-color="#7800B1"/>
</linearGradient>
<linearGradient id="paint20_linear_10_544" x1="19.2746" y1="48.194" x2="81.0186" y2="14.1582" gradientUnits="userSpaceOnUse">
<stop stop-color="white" stop-opacity="0"/>
<stop offset="1" stop-color="white" stop-opacity="0.5"/>
</linearGradient>
<linearGradient id="paint21_linear_10_544" x1="10.9765" y1="137.99" x2="157.554" y2="25.0082" gradientUnits="userSpaceOnUse">
<stop stop-color="white" stop-opacity="0"/>
<stop offset="1" stop-color="white" stop-opacity="0.5"/>
</linearGradient>
<linearGradient id="paint22_linear_10_544" x1="46.1725" y1="147.435" x2="213.918" y2="147.226" gradientUnits="userSpaceOnUse">
<stop stop-color="white" stop-opacity="0"/>
<stop offset="1" stop-color="white" stop-opacity="0.5"/>
</linearGradient>
<clipPath id="clip0_10_544">
<rect width="219.705" height="237.861" fill="white" transform="matrix(0.999999 -0.00140928 0.00124321 0.999999 0 0.30957)"/>
</clipPath>
</defs>
</svg>
